<?xml version="1.0" ?><!DOCTYPE svg  PUBLIC '-//W3C//DTD SVG 1.1//EN'  'http://www.w3.org/Graphics/SVG/1.1/DTD/svg11.dtd' [
	<!ENTITY stroke_color "#000">
	<!ENTITY fill_color "#eee">
]><svg height="55px" viewBox="0 0 55 55" width="55px" xmlns="http://www.w3.org/2000/svg" xmlns:xlink="http://www.w3.org/1999/xlink" stroke-linecap="round" stroke-linejoin="round" stroke-width="3.5" stroke="&stroke_color;" fill="&fill_color;">
  <path
     d="m 7.3439648,49.271948 0,-7.269542 -3.5655176,0 c 0,0 -1.2680224,-0.569792 -1.7421173,-1.001264 -0.535453,-0.487314 -1.0582783,-1.725808 -1.0582783,-1.725808 l 0,-29.7944946 c 0,0 0.5358041,-1.3749626 1.0582783,-1.8967335 0.5053143,-0.5046346 1.904871,-0.8954552 1.904871,-0.8954552 l 47.3618061,0 c 0,0 1.373662,0.4087151 1.847902,0.8954552 0.45576,0.4677717 0.871039,1.8967335 0.871039,1.8967335 l 0,29.7944946 c 0,0 -0.408124,1.303293 -0.871039,1.725808 -0.516877,0.471767 -1.896733,1.001264 -1.896733,1.001264 l -32.887902,0 z"
     id="path3058" />
  <g
     transform="translate(0,-45)"
     id="quote"
     style="display:none">
    <polygon
       points="11.119,50.713 29.547,77.188 42.673,67.431 31.152,50.713 45.454,50.713 45.454,16.378 11.119,16.378 "
       id="polygon5"
       style="display:inline" />
    <polygon
       points="53.192,50.713 71.621,77.188 84.747,67.431 73.226,50.713 87.528,50.713 87.528,16.378 53.192,16.378 "
       id="polygon7"
       style="display:inline" />
  </g>
  <g
     transform="translate(0.125,-3.0005)"
     id="microphone"
     style="display:block">
    <g
       id="g3171"
       style="display:inline">
      <path
         d="m 51.375,27.597 c 0,0 -11.387,13.041 -24.001,13.041 -12.613,0 -23.999,-13.041 -23.999,-13.041 0,0 8.915,-11.234 16.869,-11.234 4.418,0 7.13,2.73 7.13,2.73 0,0 2.716,-2.73 7.132,-2.73 7.953,-0.001 16.869,11.234 16.869,11.234 z"
         id="path3173"
         style="fill:#ffffff;stroke:&stroke_color;;stroke-width:3.5;stroke-linecap:round" />
      <line
         style="fill:none;stroke:&stroke_color;;stroke-width:3.5;stroke-linecap:round"
         x1="3.375"
         x2="51.375"
         y1="27.597"
         y2="27.597"
         id="line3175" />
    </g>
  </g>
</svg>
